<mxfile host="app.diagrams.net" modified="2024-06-28T23:37:40.476Z" agent="Mozilla/5.0 (Windows NT 10.0; Win64; x64) AppleWebKit/537.36 (KHTML, like Gecko) Chrome/126.0.0.0 Safari/537.36" etag="mO4skUfIRW8e2Ixy1Ci0" version="24.6.4" type="device">
  <diagram name="Page-1" id="Ju8ZlXnLnN-J9RaBL88w">
    <mxGraphModel dx="1644" dy="1520" grid="1" gridSize="10" guides="1" tooltips="1" connect="1" arrows="1" fold="1" page="1" pageScale="1" pageWidth="850" pageHeight="1100" math="0" shadow="0">
      <root>
        <mxCell id="0" />
        <mxCell id="1" parent="0" />
        <UserObject label="&lt;svg zoomAndPan=&quot;magnify&quot; width=&quot;2922px&quot; viewBox=&quot;0 0 2922 204&quot; version=&quot;1.1&quot; style=&quot;width:2922px;height:204px;background:#FFFFFF;&quot; preserveAspectRatio=&quot;none&quot; height=&quot;204px&quot; xmlns:xlink=&quot;http://www.w3.org/1999/xlink&quot; xmlns=&quot;http://www.w3.org/2000/svg&quot;&gt;&lt;defs&gt;&lt;/defs&gt;&lt;g&gt;&lt;g id=&quot;cluster_OnlineBakerySystem&quot;&gt;&lt;rect y=&quot;106.8&quot; x=&quot;7&quot; width=&quot;2909&quot; style=&quot;stroke:#181818;stroke-width:1.0;&quot; ry=&quot;2.5&quot; rx=&quot;2.5&quot; height=&quot;92.02&quot; fill=&quot;none&quot;&gt;&lt;/rect&gt;&lt;text y=&quot;121.7951&quot; x=&quot;1380.5&quot; textLength=&quot;162&quot; lengthAdjust=&quot;spacing&quot; font-weight=&quot;bold&quot; font-size=&quot;14&quot; font-family=&quot;sans-serif&quot; fill=&quot;#000000&quot;&gt;OnlineBakerySystem&lt;/text&gt;&lt;/g&gt;&lt;g id=&quot;elem_Browse Products&quot;&gt;&lt;ellipse style=&quot;stroke:#181818;stroke-width:0.5;&quot; ry=&quot;18.3568&quot; rx=&quot;79.7839&quot; fill=&quot;#F1F1F1&quot; cy=&quot;162.3068&quot; cx=&quot;103.0039&quot;&gt;&lt;/ellipse&gt;&lt;text y=&quot;165.7113&quot; x=&quot;42.2556&quot; textLength=&quot;118&quot; lengthAdjust=&quot;spacing&quot; font-size=&quot;14&quot; font-family=&quot;sans-serif&quot; fill=&quot;#000000&quot;&gt;Browse Products&lt;/text&gt;&lt;/g&gt;&lt;g id=&quot;elem_View Product Details&quot;&gt;&lt;ellipse style=&quot;stroke:#181818;stroke-width:0.5;&quot; ry=&quot;20.3346&quot; rx=&quot;89.6728&quot; fill=&quot;#F1F1F1&quot; cy=&quot;162.3146&quot; cx=&quot;307.0028&quot;&gt;&lt;/ellipse&gt;&lt;text y=&quot;165.1612&quot; x=&quot;236.5028&quot; textLength=&quot;141&quot; lengthAdjust=&quot;spacing&quot; font-size=&quot;14&quot; font-family=&quot;sans-serif&quot; fill=&quot;#000000&quot;&gt;View Product Details&lt;/text&gt;&lt;/g&gt;&lt;g id=&quot;elem_Register/Login&quot;&gt;&lt;ellipse style=&quot;stroke:#181818;stroke-width:0.5;&quot; ry=&quot;16.9374&quot; rx=&quot;72.6868&quot; fill=&quot;#F1F1F1&quot; cy=&quot;162.3074&quot; cx=&quot;503.9968&quot;&gt;&lt;/ellipse&gt;&lt;text y=&quot;166.0549&quot; x=&quot;450.9968&quot; textLength=&quot;100&quot; lengthAdjust=&quot;spacing&quot; font-size=&quot;14&quot; font-family=&quot;sans-serif&quot; fill=&quot;#000000&quot;&gt;Register/Login&lt;/text&gt;&lt;/g&gt;&lt;g id=&quot;elem_Add Products to Cart&quot;&gt;&lt;ellipse style=&quot;stroke:#181818;stroke-width:0.5;&quot; ry=&quot;20.5113&quot; rx=&quot;90.5567&quot; fill=&quot;#F1F1F1&quot; cy=&quot;162.3113&quot; cx=&quot;701.9967&quot;&gt;&lt;/ellipse&gt;&lt;text y=&quot;165.158&quot; x=&quot;630.4967&quot; textLength=&quot;143&quot; lengthAdjust=&quot;spacing&quot; font-size=&quot;14&quot; font-family=&quot;sans-serif&quot; fill=&quot;#000000&quot;&gt;Add Products to Cart&lt;/text&gt;&lt;/g&gt;&lt;g id=&quot;elem_Place Order&quot;&gt;&lt;ellipse style=&quot;stroke:#181818;stroke-width:0.5;&quot; ry=&quot;15.484&quot; rx=&quot;65.42&quot; fill=&quot;#F1F1F1&quot; cy=&quot;162.314&quot; cx=&quot;893&quot;&gt;&lt;/ellipse&gt;&lt;text y=&quot;166.0616&quot; x=&quot;850&quot; textLength=&quot;80&quot; lengthAdjust=&quot;spacing&quot; font-size=&quot;14&quot; font-family=&quot;sans-serif&quot; fill=&quot;#000000&quot;&gt;Place Order&lt;/text&gt;&lt;/g&gt;&lt;g id=&quot;elem_Make Payment&quot;&gt;&lt;ellipse style=&quot;stroke:#181818;stroke-width:0.5;&quot; ry=&quot;17.0136&quot; rx=&quot;73.0678&quot; fill=&quot;#F1F1F1&quot; cy=&quot;162.3136&quot; cx=&quot;1065.9978&quot;&gt;&lt;/ellipse&gt;&lt;text y=&quot;166.0611&quot; x=&quot;1012.4978&quot; textLength=&quot;101&quot; lengthAdjust=&quot;spacing&quot; font-size=&quot;14&quot; font-family=&quot;sans-serif&quot; fill=&quot;#000000&quot;&gt;Make Payment&lt;/text&gt;&lt;/g&gt;&lt;g id=&quot;elem_Track Order&quot;&gt;&lt;ellipse style=&quot;stroke:#181818;stroke-width:0.5;&quot; ry=&quot;15.5531&quot; rx=&quot;65.7655&quot; fill=&quot;#F1F1F1&quot; cy=&quot;162.3131&quot; cx=&quot;1239.9955&quot;&gt;&lt;/ellipse&gt;&lt;text y=&quot;166.0607&quot; x=&quot;1196.4955&quot; textLength=&quot;81&quot; lengthAdjust=&quot;spacing&quot; font-size=&quot;14&quot; font-family=&quot;sans-serif&quot; fill=&quot;#000000&quot;&gt;Track Order&lt;/text&gt;&lt;/g&gt;&lt;g id=&quot;elem_Provide Feedback&quot;&gt;&lt;ellipse style=&quot;stroke:#181818;stroke-width:0.5;&quot; ry=&quot;18.7732&quot; rx=&quot;81.8658&quot; fill=&quot;#F1F1F1&quot; cy=&quot;162.3132&quot; cx=&quot;1422.9958&quot;&gt;&lt;/ellipse&gt;&lt;text y=&quot;165.4863&quot; x=&quot;1360.5105&quot; textLength=&quot;123&quot; lengthAdjust=&quot;spacing&quot; font-size=&quot;14&quot; font-family=&quot;sans-serif&quot; fill=&quot;#000000&quot;&gt;Provide Feedback&lt;/text&gt;&lt;/g&gt;&lt;g id=&quot;elem_View Order History&quot;&gt;&lt;ellipse style=&quot;stroke:#181818;stroke-width:0.5;&quot; ry=&quot;19.0276&quot; rx=&quot;83.1379&quot; fill=&quot;#F1F1F1&quot; cy=&quot;162.3076&quot; cx=&quot;1622.9979&quot;&gt;&lt;/ellipse&gt;&lt;text y=&quot;165.3394&quot; x=&quot;1559.4514&quot; textLength=&quot;126&quot; lengthAdjust=&quot;spacing&quot; font-size=&quot;14&quot; font-family=&quot;sans-serif&quot; fill=&quot;#000000&quot;&gt;View Order History&lt;/text&gt;&lt;/g&gt;&lt;g id=&quot;elem_Manage Products&quot;&gt;&lt;ellipse style=&quot;stroke:#181818;stroke-width:0.5;&quot; ry=&quot;18.6054&quot; rx=&quot;81.0271&quot; fill=&quot;#F1F1F1&quot; cy=&quot;162.3054&quot; cx=&quot;1821.9971&quot;&gt;&lt;/ellipse&gt;&lt;text y=&quot;165.5718&quot; x=&quot;1760.2115&quot; textLength=&quot;121&quot; lengthAdjust=&quot;spacing&quot; font-size=&quot;14&quot; font-family=&quot;sans-serif&quot; fill=&quot;#000000&quot;&gt;Manage Products&lt;/text&gt;&lt;/g&gt;&lt;g id=&quot;elem_Manage Orders&quot;&gt;&lt;ellipse style=&quot;stroke:#181818;stroke-width:0.5;&quot; ry=&quot;17.399&quot; rx=&quot;74.9948&quot; fill=&quot;#F1F1F1&quot; cy=&quot;162.309&quot; cx=&quot;2013.0048&quot;&gt;&lt;/ellipse&gt;&lt;text y=&quot;166.0565&quot; x=&quot;1957.0048&quot; textLength=&quot;106&quot; lengthAdjust=&quot;spacing&quot; font-size=&quot;14&quot; font-family=&quot;sans-serif&quot; fill=&quot;#000000&quot;&gt;Manage Orders&lt;/text&gt;&lt;/g&gt;&lt;g id=&quot;elem_View Sales Reports&quot;&gt;&lt;ellipse style=&quot;stroke:#181818;stroke-width:0.5;&quot; ry=&quot;19.5456&quot; rx=&quot;85.728&quot; fill=&quot;#F1F1F1&quot; cy=&quot;162.3056&quot; cx=&quot;2208.998&quot;&gt;&lt;/ellipse&gt;&lt;text y=&quot;165.1523&quot; x=&quot;2142.998&quot; textLength=&quot;132&quot; lengthAdjust=&quot;spacing&quot; font-size=&quot;14&quot; font-family=&quot;sans-serif&quot; fill=&quot;#000000&quot;&gt;View Sales Reports&lt;/text&gt;&lt;/g&gt;&lt;g id=&quot;elem_Manage Inventory&quot;&gt;&lt;ellipse style=&quot;stroke:#181818;stroke-width:0.5;&quot; ry=&quot;18.6891&quot; rx=&quot;81.4455&quot; fill=&quot;#F1F1F1&quot; cy=&quot;162.3091&quot; cx=&quot;2410.9955&quot;&gt;&lt;/ellipse&gt;&lt;text y=&quot;165.529&quot; x=&quot;2348.8609&quot; textLength=&quot;122&quot; lengthAdjust=&quot;spacing&quot; font-size=&quot;14&quot; font-family=&quot;sans-serif&quot; fill=&quot;#000000&quot;&gt;Manage Inventory&lt;/text&gt;&lt;/g&gt;&lt;g id=&quot;elem_Manage Customers&quot;&gt;&lt;ellipse style=&quot;stroke:#181818;stroke-width:0.5;&quot; ry=&quot;19.8074&quot; rx=&quot;87.0368&quot; fill=&quot;#F1F1F1&quot; cy=&quot;162.3074&quot; cx=&quot;2613.9968&quot;&gt;&lt;/ellipse&gt;&lt;text y=&quot;165.154&quot; x=&quot;2546.4968&quot; textLength=&quot;135&quot; lengthAdjust=&quot;spacing&quot; font-size=&quot;14&quot; font-family=&quot;sans-serif&quot; fill=&quot;#000000&quot;&gt;Manage Customers&lt;/text&gt;&lt;/g&gt;&lt;g id=&quot;elem_Generate Reports&quot;&gt;&lt;ellipse style=&quot;stroke:#181818;stroke-width:0.5;&quot; ry=&quot;18.8576&quot; rx=&quot;82.288&quot; fill=&quot;#F1F1F1&quot; cy=&quot;162.3076&quot; cx=&quot;2817.998&quot;&gt;&lt;/ellipse&gt;&lt;text y=&quot;165.4338&quot; x=&quot;2755.1605&quot; textLength=&quot;124&quot; lengthAdjust=&quot;spacing&quot; font-size=&quot;14&quot; font-family=&quot;sans-serif&quot; fill=&quot;#000000&quot;&gt;Generate Reports&lt;/text&gt;&lt;/g&gt;&lt;g id=&quot;elem_Customer&quot;&gt;&lt;ellipse style=&quot;stroke:#181818;stroke-width:0.5;&quot; ry=&quot;8&quot; rx=&quot;8&quot; fill=&quot;#F1F1F1&quot; cy=&quot;14&quot; cx=&quot;893&quot;&gt;&lt;/ellipse&gt;&lt;path style=&quot;stroke:#181818;stroke-width:0.5;&quot; fill=&quot;none&quot; d=&quot;M893,22 L893,49 M880,30 L906,30 M893,49 L880,64 M893,49 L906,64&quot;&gt;&lt;/path&gt;&lt;text y=&quot;78.4951&quot; x=&quot;859&quot; textLength=&quot;68&quot; lengthAdjust=&quot;spacing&quot; font-size=&quot;14&quot; font-family=&quot;sans-serif&quot; fill=&quot;#000000&quot;&gt;Customer&lt;/text&gt;&lt;/g&gt;&lt;g id=&quot;elem_Admin&quot;&gt;&lt;ellipse style=&quot;stroke:#181818;stroke-width:0.5;&quot; ry=&quot;8&quot; rx=&quot;8&quot; fill=&quot;#F1F1F1&quot; cy=&quot;14&quot; cx=&quot;2310&quot;&gt;&lt;/ellipse&gt;&lt;path style=&quot;stroke:#181818;stroke-width:0.5;&quot; fill=&quot;none&quot; d=&quot;M2310,22 L2310,49 M2297,30 L2323,30 M2310,49 L2297,64 M2310,49 L2323,64&quot;&gt;&lt;/path&gt;&lt;text y=&quot;78.4951&quot; x=&quot;2288.5&quot; textLength=&quot;43&quot; lengthAdjust=&quot;spacing&quot; font-size=&quot;14&quot; font-family=&quot;sans-serif&quot; fill=&quot;#000000&quot;&gt;Admin&lt;/text&gt;&lt;/g&gt;&lt;g id=&quot;link_Customer_Browse Products&quot;&gt;&lt;path style=&quot;stroke:#181818;stroke-width:1.0;&quot; id=&quot;Customer-Browse Products&quot; fill=&quot;none&quot; d=&quot;M858.71,45.12 C736.69,47.12 324.22,56.91 200,98.8 C170.76,108.66 141.6,129.27 123,144.14&quot;&gt;&lt;/path&gt;&lt;/g&gt;&lt;g id=&quot;link_Customer_View Product Details&quot;&gt;&lt;path style=&quot;stroke:#181818;stroke-width:1.0;&quot; id=&quot;Customer-View Product Details&quot; fill=&quot;none&quot; d=&quot;M858.54,46.69 C763.1,52.63 496.9,71.27 414,98.8 C383.99,108.77 353.16,127.9 332.35,142.38&quot;&gt;&lt;/path&gt;&lt;/g&gt;&lt;g id=&quot;link_Customer_Register/Login&quot;&gt;&lt;path style=&quot;stroke:#181818;stroke-width:1.0;&quot; id=&quot;Customer-Register/Login&quot; fill=&quot;none&quot; d=&quot;M858.95,46.12 C802.04,49.6 684.88,61.11 594,98.8 C566.41,110.24 538.81,131.16 521.59,145.63&quot;&gt;&lt;/path&gt;&lt;/g&gt;&lt;g id=&quot;link_Customer_Add Products to Cart&quot;&gt;&lt;path style=&quot;stroke:#181818;stroke-width:1.0;&quot; id=&quot;Customer-Add Products to Cart&quot; fill=&quot;none&quot; d=&quot;M858.85,65.51 C823.01,87.4 767.18,121.49 732.7,142.56&quot;&gt;&lt;/path&gt;&lt;/g&gt;&lt;g id=&quot;link_Customer_Place Order&quot;&gt;&lt;path style=&quot;stroke:#181818;stroke-width:1.0;&quot; id=&quot;Customer-Place Order&quot; fill=&quot;none&quot; d=&quot;M893,82.2 C893,104.05 893,130.37 893,146.47&quot;&gt;&lt;/path&gt;&lt;/g&gt;&lt;g id=&quot;link_Customer_Make Payment&quot;&gt;&lt;path style=&quot;stroke:#181818;stroke-width:1.0;&quot; id=&quot;Customer-Make Payment&quot; fill=&quot;none&quot; d=&quot;M927.47,66.82 C942.45,76.53 960.16,88.13 976,98.8 C999.36,114.52 1025.79,132.96 1043.93,145.71&quot;&gt;&lt;/path&gt;&lt;/g&gt;&lt;g id=&quot;link_Customer_Track Order&quot;&gt;&lt;path style=&quot;stroke:#181818;stroke-width:1.0;&quot; id=&quot;Customer-Track Order&quot; fill=&quot;none&quot; d=&quot;M927.4,46.86 C979.25,51.25 1079.6,63.87 1157,98.8 C1183.47,110.74 1209.48,132.39 1225.13,146.81&quot;&gt;&lt;/path&gt;&lt;/g&gt;&lt;g id=&quot;link_Customer_Provide Feedback&quot;&gt;&lt;path style=&quot;stroke:#181818;stroke-width:1.0;&quot; id=&quot;Customer-Provide Feedback&quot; fill=&quot;none&quot; d=&quot;M927.32,44.04 C1001.72,43.75 1182.47,48.77 1323,98.8 C1352.32,109.23 1382.08,129.31 1401.41,143.91&quot;&gt;&lt;/path&gt;&lt;/g&gt;&lt;g id=&quot;link_Customer_View Order History&quot;&gt;&lt;path style=&quot;stroke:#181818;stroke-width:1.0;&quot; id=&quot;Customer-View Order History&quot; fill=&quot;none&quot; d=&quot;M927.23,45.51 C1041.66,48.7 1410.03,61.69 1522,98.8 C1551.75,108.66 1581.78,128.85 1601.27,143.62&quot;&gt;&lt;/path&gt;&lt;/g&gt;&lt;g id=&quot;link_Admin_Manage Products&quot;&gt;&lt;path style=&quot;stroke:#181818;stroke-width:1.0;&quot; id=&quot;Admin-Manage Products&quot; fill=&quot;none&quot; d=&quot;M2288.15,44.51 C2227.75,44.78 2054.19,50.06 1921,98.8 C1891.98,109.41 1862.52,129.46 1843.37,144&quot;&gt;&lt;/path&gt;&lt;/g&gt;&lt;g id=&quot;link_Admin_Manage Orders&quot;&gt;&lt;path style=&quot;stroke:#181818;stroke-width:1.0;&quot; id=&quot;Admin-Manage Orders&quot; fill=&quot;none&quot; d=&quot;M2288.05,48.01 C2249.78,54.4 2168.91,70.28 2106,98.8 C2078.89,111.09 2050.97,131.02 2032.88,145.06&quot;&gt;&lt;/path&gt;&lt;/g&gt;&lt;g id=&quot;link_Admin_View Sales Reports&quot;&gt;&lt;path style=&quot;stroke:#181818;stroke-width:1.0;&quot; id=&quot;Admin-View Sales Reports&quot; fill=&quot;none&quot; d=&quot;M2288.08,69.96 C2269.05,91.94 2241.95,123.25 2224.93,142.91&quot;&gt;&lt;/path&gt;&lt;/g&gt;&lt;g id=&quot;link_Admin_Manage Inventory&quot;&gt;&lt;path style=&quot;stroke:#181818;stroke-width:1.0;&quot; id=&quot;Admin-Manage Inventory&quot; fill=&quot;none&quot; d=&quot;M2331.92,69.96 C2351.18,92.21 2378.71,124.01 2395.69,143.63&quot;&gt;&lt;/path&gt;&lt;/g&gt;&lt;g id=&quot;link_Admin_Manage Customers&quot;&gt;&lt;path style=&quot;stroke:#181818;stroke-width:1.0;&quot; id=&quot;Admin-Manage Customers&quot; fill=&quot;none&quot; d=&quot;M2331.97,48.53 C2369.51,55.6 2447.95,72.36 2510,98.8 C2538.1,110.77 2567.73,129.24 2588.15,143&quot;&gt;&lt;/path&gt;&lt;/g&gt;&lt;g id=&quot;link_Admin_Generate Reports&quot;&gt;&lt;path style=&quot;stroke:#181818;stroke-width:1.0;&quot; id=&quot;Admin-Generate Reports&quot; fill=&quot;none&quot; d=&quot;M2331.62,44.3 C2393.83,43.97 2577.91,47.71 2719,98.8 C2747.86,109.25 2777.12,129.12 2796.26,143.66&quot;&gt;&lt;/path&gt;&lt;/g&gt;&lt;/g&gt;&lt;/svg&gt;" link="&lt;svg zoomAndPan=&quot;magnify&quot; width=&quot;2922px&quot; viewBox=&quot;0 0 2922 204&quot; version=&quot;1.1&quot; style=&quot;width:2922px;height:204px;background:#FFFFFF;&quot; preserveAspectRatio=&quot;none&quot; height=&quot;204px&quot; xmlns:xlink=&quot;http://www.w3.org/1999/xlink&quot; xmlns=&quot;http://www.w3.org/2000/svg&quot;&gt;&lt;defs&gt;&lt;/defs&gt;&lt;g&gt;&lt;g id=&quot;cluster_OnlineBakerySystem&quot;&gt;&lt;rect y=&quot;106.8&quot; x=&quot;7&quot; width=&quot;2909&quot; style=&quot;stroke:#181818;stroke-width:1.0;&quot; ry=&quot;2.5&quot; rx=&quot;2.5&quot; height=&quot;92.02&quot; fill=&quot;none&quot;&gt;&lt;/rect&gt;&lt;text y=&quot;121.7951&quot; x=&quot;1380.5&quot; textLength=&quot;162&quot; lengthAdjust=&quot;spacing&quot; font-weight=&quot;bold&quot; font-size=&quot;14&quot; font-family=&quot;sans-serif&quot; fill=&quot;#000000&quot;&gt;OnlineBakerySystem&lt;/text&gt;&lt;/g&gt;&lt;g id=&quot;elem_Browse Products&quot;&gt;&lt;ellipse style=&quot;stroke:#181818;stroke-width:0.5;&quot; ry=&quot;18.3568&quot; rx=&quot;79.7839&quot; fill=&quot;#F1F1F1&quot; cy=&quot;162.3068&quot; cx=&quot;103.0039&quot;&gt;&lt;/ellipse&gt;&lt;text y=&quot;165.7113&quot; x=&quot;42.2556&quot; textLength=&quot;118&quot; lengthAdjust=&quot;spacing&quot; font-size=&quot;14&quot; font-family=&quot;sans-serif&quot; fill=&quot;#000000&quot;&gt;Browse Products&lt;/text&gt;&lt;/g&gt;&lt;g id=&quot;elem_View Product Details&quot;&gt;&lt;ellipse style=&quot;stroke:#181818;stroke-width:0.5;&quot; ry=&quot;20.3346&quot; rx=&quot;89.6728&quot; fill=&quot;#F1F1F1&quot; cy=&quot;162.3146&quot; cx=&quot;307.0028&quot;&gt;&lt;/ellipse&gt;&lt;text y=&quot;165.1612&quot; x=&quot;236.5028&quot; textLength=&quot;141&quot; lengthAdjust=&quot;spacing&quot; font-size=&quot;14&quot; font-family=&quot;sans-serif&quot; fill=&quot;#000000&quot;&gt;View Product Details&lt;/text&gt;&lt;/g&gt;&lt;g id=&quot;elem_Register/Login&quot;&gt;&lt;ellipse style=&quot;stroke:#181818;stroke-width:0.5;&quot; ry=&quot;16.9374&quot; rx=&quot;72.6868&quot; fill=&quot;#F1F1F1&quot; cy=&quot;162.3074&quot; cx=&quot;503.9968&quot;&gt;&lt;/ellipse&gt;&lt;text y=&quot;166.0549&quot; x=&quot;450.9968&quot; textLength=&quot;100&quot; lengthAdjust=&quot;spacing&quot; font-size=&quot;14&quot; font-family=&quot;sans-serif&quot; fill=&quot;#000000&quot;&gt;Register/Login&lt;/text&gt;&lt;/g&gt;&lt;g id=&quot;elem_Add Products to Cart&quot;&gt;&lt;ellipse style=&quot;stroke:#181818;stroke-width:0.5;&quot; ry=&quot;20.5113&quot; rx=&quot;90.5567&quot; fill=&quot;#F1F1F1&quot; cy=&quot;162.3113&quot; cx=&quot;701.9967&quot;&gt;&lt;/ellipse&gt;&lt;text y=&quot;165.158&quot; x=&quot;630.4967&quot; textLength=&quot;143&quot; lengthAdjust=&quot;spacing&quot; font-size=&quot;14&quot; font-family=&quot;sans-serif&quot; fill=&quot;#000000&quot;&gt;Add Products to Cart&lt;/text&gt;&lt;/g&gt;&lt;g id=&quot;elem_Place Order&quot;&gt;&lt;ellipse style=&quot;stroke:#181818;stroke-width:0.5;&quot; ry=&quot;15.484&quot; rx=&quot;65.42&quot; fill=&quot;#F1F1F1&quot; cy=&quot;162.314&quot; cx=&quot;893&quot;&gt;&lt;/ellipse&gt;&lt;text y=&quot;166.0616&quot; x=&quot;850&quot; textLength=&quot;80&quot; lengthAdjust=&quot;spacing&quot; font-size=&quot;14&quot; font-family=&quot;sans-serif&quot; fill=&quot;#000000&quot;&gt;Place Order&lt;/text&gt;&lt;/g&gt;&lt;g id=&quot;elem_Make Payment&quot;&gt;&lt;ellipse style=&quot;stroke:#181818;stroke-width:0.5;&quot; ry=&quot;17.0136&quot; rx=&quot;73.0678&quot; fill=&quot;#F1F1F1&quot; cy=&quot;162.3136&quot; cx=&quot;1065.9978&quot;&gt;&lt;/ellipse&gt;&lt;text y=&quot;166.0611&quot; x=&quot;1012.4978&quot; textLength=&quot;101&quot; lengthAdjust=&quot;spacing&quot; font-size=&quot;14&quot; font-family=&quot;sans-serif&quot; fill=&quot;#000000&quot;&gt;Make Payment&lt;/text&gt;&lt;/g&gt;&lt;g id=&quot;elem_Track Order&quot;&gt;&lt;ellipse style=&quot;stroke:#181818;stroke-width:0.5;&quot; ry=&quot;15.5531&quot; rx=&quot;65.7655&quot; fill=&quot;#F1F1F1&quot; cy=&quot;162.3131&quot; cx=&quot;1239.9955&quot;&gt;&lt;/ellipse&gt;&lt;text y=&quot;166.0607&quot; x=&quot;1196.4955&quot; textLength=&quot;81&quot; lengthAdjust=&quot;spacing&quot; font-size=&quot;14&quot; font-family=&quot;sans-serif&quot; fill=&quot;#000000&quot;&gt;Track Order&lt;/text&gt;&lt;/g&gt;&lt;g id=&quot;elem_Provide Feedback&quot;&gt;&lt;ellipse style=&quot;stroke:#181818;stroke-width:0.5;&quot; ry=&quot;18.7732&quot; rx=&quot;81.8658&quot; fill=&quot;#F1F1F1&quot; cy=&quot;162.3132&quot; cx=&quot;1422.9958&quot;&gt;&lt;/ellipse&gt;&lt;text y=&quot;165.4863&quot; x=&quot;1360.5105&quot; textLength=&quot;123&quot; lengthAdjust=&quot;spacing&quot; font-size=&quot;14&quot; font-family=&quot;sans-serif&quot; fill=&quot;#000000&quot;&gt;Provide Feedback&lt;/text&gt;&lt;/g&gt;&lt;g id=&quot;elem_View Order History&quot;&gt;&lt;ellipse style=&quot;stroke:#181818;stroke-width:0.5;&quot; ry=&quot;19.0276&quot; rx=&quot;83.1379&quot; fill=&quot;#F1F1F1&quot; cy=&quot;162.3076&quot; cx=&quot;1622.9979&quot;&gt;&lt;/ellipse&gt;&lt;text y=&quot;165.3394&quot; x=&quot;1559.4514&quot; textLength=&quot;126&quot; lengthAdjust=&quot;spacing&quot; font-size=&quot;14&quot; font-family=&quot;sans-serif&quot; fill=&quot;#000000&quot;&gt;View Order History&lt;/text&gt;&lt;/g&gt;&lt;g id=&quot;elem_Manage Products&quot;&gt;&lt;ellipse style=&quot;stroke:#181818;stroke-width:0.5;&quot; ry=&quot;18.6054&quot; rx=&quot;81.0271&quot; fill=&quot;#F1F1F1&quot; cy=&quot;162.3054&quot; cx=&quot;1821.9971&quot;&gt;&lt;/ellipse&gt;&lt;text y=&quot;165.5718&quot; x=&quot;1760.2115&quot; textLength=&quot;121&quot; lengthAdjust=&quot;spacing&quot; font-size=&quot;14&quot; font-family=&quot;sans-serif&quot; fill=&quot;#000000&quot;&gt;Manage Products&lt;/text&gt;&lt;/g&gt;&lt;g id=&quot;elem_Manage Orders&quot;&gt;&lt;ellipse style=&quot;stroke:#181818;stroke-width:0.5;&quot; ry=&quot;17.399&quot; rx=&quot;74.9948&quot; fill=&quot;#F1F1F1&quot; cy=&quot;162.309&quot; cx=&quot;2013.0048&quot;&gt;&lt;/ellipse&gt;&lt;text y=&quot;166.0565&quot; x=&quot;1957.0048&quot; textLength=&quot;106&quot; lengthAdjust=&quot;spacing&quot; font-size=&quot;14&quot; font-family=&quot;sans-serif&quot; fill=&quot;#000000&quot;&gt;Manage Orders&lt;/text&gt;&lt;/g&gt;&lt;g id=&quot;elem_View Sales Reports&quot;&gt;&lt;ellipse style=&quot;stroke:#181818;stroke-width:0.5;&quot; ry=&quot;19.5456&quot; rx=&quot;85.728&quot; fill=&quot;#F1F1F1&quot; cy=&quot;162.3056&quot; cx=&quot;2208.998&quot;&gt;&lt;/ellipse&gt;&lt;text y=&quot;165.1523&quot; x=&quot;2142.998&quot; textLength=&quot;132&quot; lengthAdjust=&quot;spacing&quot; font-size=&quot;14&quot; font-family=&quot;sans-serif&quot; fill=&quot;#000000&quot;&gt;View Sales Reports&lt;/text&gt;&lt;/g&gt;&lt;g id=&quot;elem_Manage Inventory&quot;&gt;&lt;ellipse style=&quot;stroke:#181818;stroke-width:0.5;&quot; ry=&quot;18.6891&quot; rx=&quot;81.4455&quot; fill=&quot;#F1F1F1&quot; cy=&quot;162.3091&quot; cx=&quot;2410.9955&quot;&gt;&lt;/ellipse&gt;&lt;text y=&quot;165.529&quot; x=&quot;2348.8609&quot; textLength=&quot;122&quot; lengthAdjust=&quot;spacing&quot; font-size=&quot;14&quot; font-family=&quot;sans-serif&quot; fill=&quot;#000000&quot;&gt;Manage Inventory&lt;/text&gt;&lt;/g&gt;&lt;g id=&quot;elem_Manage Customers&quot;&gt;&lt;ellipse style=&quot;stroke:#181818;stroke-width:0.5;&quot; ry=&quot;19.8074&quot; rx=&quot;87.0368&quot; fill=&quot;#F1F1F1&quot; cy=&quot;162.3074&quot; cx=&quot;2613.9968&quot;&gt;&lt;/ellipse&gt;&lt;text y=&quot;165.154&quot; x=&quot;2546.4968&quot; textLength=&quot;135&quot; lengthAdjust=&quot;spacing&quot; font-size=&quot;14&quot; font-family=&quot;sans-serif&quot; fill=&quot;#000000&quot;&gt;Manage Customers&lt;/text&gt;&lt;/g&gt;&lt;g id=&quot;elem_Generate Reports&quot;&gt;&lt;ellipse style=&quot;stroke:#181818;stroke-width:0.5;&quot; ry=&quot;18.8576&quot; rx=&quot;82.288&quot; fill=&quot;#F1F1F1&quot; cy=&quot;162.3076&quot; cx=&quot;2817.998&quot;&gt;&lt;/ellipse&gt;&lt;text y=&quot;165.4338&quot; x=&quot;2755.1605&quot; textLength=&quot;124&quot; lengthAdjust=&quot;spacing&quot; font-size=&quot;14&quot; font-family=&quot;sans-serif&quot; fill=&quot;#000000&quot;&gt;Generate Reports&lt;/text&gt;&lt;/g&gt;&lt;g id=&quot;elem_Customer&quot;&gt;&lt;ellipse style=&quot;stroke:#181818;stroke-width:0.5;&quot; ry=&quot;8&quot; rx=&quot;8&quot; fill=&quot;#F1F1F1&quot; cy=&quot;14&quot; cx=&quot;893&quot;&gt;&lt;/ellipse&gt;&lt;path style=&quot;stroke:#181818;stroke-width:0.5;&quot; fill=&quot;none&quot; d=&quot;M893,22 L893,49 M880,30 L906,30 M893,49 L880,64 M893,49 L906,64&quot;&gt;&lt;/path&gt;&lt;text y=&quot;78.4951&quot; x=&quot;859&quot; textLength=&quot;68&quot; lengthAdjust=&quot;spacing&quot; font-size=&quot;14&quot; font-family=&quot;sans-serif&quot; fill=&quot;#000000&quot;&gt;Customer&lt;/text&gt;&lt;/g&gt;&lt;g id=&quot;elem_Admin&quot;&gt;&lt;ellipse style=&quot;stroke:#181818;stroke-width:0.5;&quot; ry=&quot;8&quot; rx=&quot;8&quot; fill=&quot;#F1F1F1&quot; cy=&quot;14&quot; cx=&quot;2310&quot;&gt;&lt;/ellipse&gt;&lt;path style=&quot;stroke:#181818;stroke-width:0.5;&quot; fill=&quot;none&quot; d=&quot;M2310,22 L2310,49 M2297,30 L2323,30 M2310,49 L2297,64 M2310,49 L2323,64&quot;&gt;&lt;/path&gt;&lt;text y=&quot;78.4951&quot; x=&quot;2288.5&quot; textLength=&quot;43&quot; lengthAdjust=&quot;spacing&quot; font-size=&quot;14&quot; font-family=&quot;sans-serif&quot; fill=&quot;#000000&quot;&gt;Admin&lt;/text&gt;&lt;/g&gt;&lt;g id=&quot;link_Customer_Browse Products&quot;&gt;&lt;path style=&quot;stroke:#181818;stroke-width:1.0;&quot; id=&quot;Customer-Browse Products&quot; fill=&quot;none&quot; d=&quot;M858.71,45.12 C736.69,47.12 324.22,56.91 200,98.8 C170.76,108.66 141.6,129.27 123,144.14&quot;&gt;&lt;/path&gt;&lt;/g&gt;&lt;g id=&quot;link_Customer_View Product Details&quot;&gt;&lt;path style=&quot;stroke:#181818;stroke-width:1.0;&quot; id=&quot;Customer-View Product Details&quot; fill=&quot;none&quot; d=&quot;M858.54,46.69 C763.1,52.63 496.9,71.27 414,98.8 C383.99,108.77 353.16,127.9 332.35,142.38&quot;&gt;&lt;/path&gt;&lt;/g&gt;&lt;g id=&quot;link_Customer_Register/Login&quot;&gt;&lt;path style=&quot;stroke:#181818;stroke-width:1.0;&quot; id=&quot;Customer-Register/Login&quot; fill=&quot;none&quot; d=&quot;M858.95,46.12 C802.04,49.6 684.88,61.11 594,98.8 C566.41,110.24 538.81,131.16 521.59,145.63&quot;&gt;&lt;/path&gt;&lt;/g&gt;&lt;g id=&quot;link_Customer_Add Products to Cart&quot;&gt;&lt;path style=&quot;stroke:#181818;stroke-width:1.0;&quot; id=&quot;Customer-Add Products to Cart&quot; fill=&quot;none&quot; d=&quot;M858.85,65.51 C823.01,87.4 767.18,121.49 732.7,142.56&quot;&gt;&lt;/path&gt;&lt;/g&gt;&lt;g id=&quot;link_Customer_Place Order&quot;&gt;&lt;path style=&quot;stroke:#181818;stroke-width:1.0;&quot; id=&quot;Customer-Place Order&quot; fill=&quot;none&quot; d=&quot;M893,82.2 C893,104.05 893,130.37 893,146.47&quot;&gt;&lt;/path&gt;&lt;/g&gt;&lt;g id=&quot;link_Customer_Make Payment&quot;&gt;&lt;path style=&quot;stroke:#181818;stroke-width:1.0;&quot; id=&quot;Customer-Make Payment&quot; fill=&quot;none&quot; d=&quot;M927.47,66.82 C942.45,76.53 960.16,88.13 976,98.8 C999.36,114.52 1025.79,132.96 1043.93,145.71&quot;&gt;&lt;/path&gt;&lt;/g&gt;&lt;g id=&quot;link_Customer_Track Order&quot;&gt;&lt;path style=&quot;stroke:#181818;stroke-width:1.0;&quot; id=&quot;Customer-Track Order&quot; fill=&quot;none&quot; d=&quot;M927.4,46.86 C979.25,51.25 1079.6,63.87 1157,98.8 C1183.47,110.74 1209.48,132.39 1225.13,146.81&quot;&gt;&lt;/path&gt;&lt;/g&gt;&lt;g id=&quot;link_Customer_Provide Feedback&quot;&gt;&lt;path style=&quot;stroke:#181818;stroke-width:1.0;&quot; id=&quot;Customer-Provide Feedback&quot; fill=&quot;none&quot; d=&quot;M927.32,44.04 C1001.72,43.75 1182.47,48.77 1323,98.8 C1352.32,109.23 1382.08,129.31 1401.41,143.91&quot;&gt;&lt;/path&gt;&lt;/g&gt;&lt;g id=&quot;link_Customer_View Order History&quot;&gt;&lt;path style=&quot;stroke:#181818;stroke-width:1.0;&quot; id=&quot;Customer-View Order History&quot; fill=&quot;none&quot; d=&quot;M927.23,45.51 C1041.66,48.7 1410.03,61.69 1522,98.8 C1551.75,108.66 1581.78,128.85 1601.27,143.62&quot;&gt;&lt;/path&gt;&lt;/g&gt;&lt;g id=&quot;link_Admin_Manage Products&quot;&gt;&lt;path style=&quot;stroke:#181818;stroke-width:1.0;&quot; id=&quot;Admin-Manage Products&quot; fill=&quot;none&quot; d=&quot;M2288.15,44.51 C2227.75,44.78 2054.19,50.06 1921,98.8 C1891.98,109.41 1862.52,129.46 1843.37,144&quot;&gt;&lt;/path&gt;&lt;/g&gt;&lt;g id=&quot;link_Admin_Manage Orders&quot;&gt;&lt;path style=&quot;stroke:#181818;stroke-width:1.0;&quot; id=&quot;Admin-Manage Orders&quot; fill=&quot;none&quot; d=&quot;M2288.05,48.01 C2249.78,54.4 2168.91,70.28 2106,98.8 C2078.89,111.09 2050.97,131.02 2032.88,145.06&quot;&gt;&lt;/path&gt;&lt;/g&gt;&lt;g id=&quot;link_Admin_View Sales Reports&quot;&gt;&lt;path style=&quot;stroke:#181818;stroke-width:1.0;&quot; id=&quot;Admin-View Sales Reports&quot; fill=&quot;none&quot; d=&quot;M2288.08,69.96 C2269.05,91.94 2241.95,123.25 2224.93,142.91&quot;&gt;&lt;/path&gt;&lt;/g&gt;&lt;g id=&quot;link_Admin_Manage Inventory&quot;&gt;&lt;path style=&quot;stroke:#181818;stroke-width:1.0;&quot; id=&quot;Admin-Manage Inventory&quot; fill=&quot;none&quot; d=&quot;M2331.92,69.96 C2351.18,92.21 2378.71,124.01 2395.69,143.63&quot;&gt;&lt;/path&gt;&lt;/g&gt;&lt;g id=&quot;link_Admin_Manage Customers&quot;&gt;&lt;path style=&quot;stroke:#181818;stroke-width:1.0;&quot; id=&quot;Admin-Manage Customers&quot; fill=&quot;none&quot; d=&quot;M2331.97,48.53 C2369.51,55.6 2447.95,72.36 2510,98.8 C2538.1,110.77 2567.73,129.24 2588.15,143&quot;&gt;&lt;/path&gt;&lt;/g&gt;&lt;g id=&quot;link_Admin_Generate Reports&quot;&gt;&lt;path style=&quot;stroke:#181818;stroke-width:1.0;&quot; id=&quot;Admin-Generate Reports&quot; fill=&quot;none&quot; d=&quot;M2331.62,44.3 C2393.83,43.97 2577.91,47.71 2719,98.8 C2747.86,109.25 2777.12,129.12 2796.26,143.66&quot;&gt;&lt;/path&gt;&lt;/g&gt;&lt;/g&gt;&lt;/svg&gt;" id="IqVelqBaixelSxtgLz53-1">
          <mxCell style="text;whiteSpace=wrap;html=1;" vertex="1" parent="1">
            <mxGeometry x="-150" y="-30" width="560" height="230" as="geometry" />
          </mxCell>
        </UserObject>
      </root>
    </mxGraphModel>
  </diagram>
</mxfile>
